# xmcd
#
# Track frame offsets:
#	150
#	17081
#	35857
#	52102
#	69121
#	93708
#	110615
#	129150
#	147793
#	162863
#	187482
#	198927
#	213822
#
# Disc length: 3190 seconds
#
# Revision: 0
# Processed by: cddbd v1.4b42PL1 Copyright (c) Steve Scherf et al.
# Submitted via: EZCDDA 4.3.3.2
#
DISCID=bd0c740d
DTITLE=Gregorián Mesterek
DYEAR=1900
DGENRE=
TTITLE0=Szerelem Elsö Vérig
TTITLE1=Várj, Míg Felkel Majd A Nap
TTITLE2=Száz Út
TTITLE3=Európa
TTITLE4=Gyöngyhajú Lány
TTITLE5=Homok A Szélben
TTITLE6=Nagy Utazás
TTITLE7=A Hûtlen
TTITLE8=Évszakok
TTITLE9=Ha Volna Két Életem
TTITLE10=PearlDance (Gyöngy Tánc)
TTITLE11=Adagio
TTITLE12=Gyöngyhajú Lány (Reprise)
EXTD=
EXTT0=
EXTT1=
EXTT2=
EXTT3=
EXTT4=
EXTT5=
EXTT6=
EXTT7=
EXTT8=
EXTT9=
EXTT10=
EXTT11=
EXTT12=
PLAYORDER=
